<?xml version="1.0" standalone="no"?>
<!DOCTYPE svg PUBLIC "-//W3C//DTD SVG 20010904//EN"
 "http://www.w3.org/TR/2001/REC-SVG-20010904/DTD/svg10.dtd">
<svg version="1.0" xmlns="http://www.w3.org/2000/svg"
 width="128.000000pt" height="128.000000pt" viewBox="0 0 128.000000 128.000000"
 preserveAspectRatio="xMidYMid meet">
<metadata>
Created by potrace 1.11, written by Peter Selinger 2001-2013
</metadata>
<g transform="translate(0.000000,128.000000) scale(0.100000,-0.100000)"
fill="#000000" stroke="none">
<path d="M568 1125 c-2 -2 -15 -6 -28 -8 -99 -19 -233 -124 -279 -219 -13 -27
-26 -48 -30 -48 -5 0 -28 -18 -53 -40 -79 -69 -107 -170 -64 -235 21 -32 49
-46 98 -49 30 -2 43 -8 53 -25 11 -21 8 -27 -30 -65 -85 -86 -110 -189 -58
-238 48 -43 160 -58 258 -33 46 12 116 51 154 85 42 37 58 37 94 0 16 -16 52
-40 80 -54 104 -50 195 -58 282 -25 62 23 87 58 79 109 -8 45 -53 126 -89 159
-19 17 -35 35 -35 39 1 22 33 44 70 48 50 6 82 25 100 60 19 35 17 102 -5 144
-17 35 -100 120 -115 120 -4 0 -18 19 -30 43 -75 145 -219 233 -382 235 -37 0
-68 -1 -70 -3z"/>
</g>
</svg>
